# xmcd
# 
# Track frame offsets:
#     150
#     18525
#     40350
#     57675
#     79425
#     100950
#     113625
#     133200
#     153900
#     172050
#     191325
#     210000
#     227700
#     243900
# 
# Disc length: 3538
# 
# Revision: 2
# Processed by: cddbd v1.5.2PL0 Copyright (c) Steve Scherf et al.
# Submitted via: fre:ac v1.0.17
# 
DISCID=bc0dd00e
DTITLE=Various Artist - Everlasting Love Songs 6
DYEAR=1990
DGENRE=Easy Listening
TTITLE0=George Benson - Nothing Gonna Change My Love For You
TTITLE1=Bobby Brown - Rock Witcha
TTITLE2=Chicago - Hard To Say I'm Sorry
TTITLE3=Phil Collins - One More Night
TTITLE4=Roberta Flack - Killing Me Softly With His Song
TTITLE5=England Dan and John Ford Coley - Just Tell Me You Love Me
TTITLE6=Laura Allen - Slip And Slide
TTITLE7=Glen Frey - The One You Love
TTITLE8=Patti Labelle - If You Asked Me To
TTITLE9=Everything But The Girl - I Don't Want To Talk About It
TTITLE10=Randy Crawford - Almaz
TTITLE11=Linda Ronstadt - Blue Bayou
TTITLE12=Eagles - Desperado
TTITLE13=Foreigner - Waiting For A Girl Like You
EXTD=YEAR: 1990
EXTT0=
EXTT1=
EXTT2=
EXTT3=
EXTT4=
EXTT5=
EXTT6=
EXTT7=
EXTT8=
EXTT9=
EXTT10=
EXTT11=
EXTT12=
EXTT13=
PLAYORDER=
